<?xml version="1.0" standalone="no"?>
<!DOCTYPE svg PUBLIC "-//W3C//DTD SVG 20010904//EN"
 "http://www.w3.org/TR/2001/REC-SVG-20010904/DTD/svg10.dtd">
<svg version="1.0" xmlns="http://www.w3.org/2000/svg"
 width="50.000000pt" height="50.000000pt" viewBox="0 0 50.000000 50.000000"
 preserveAspectRatio="xMidYMid meet">
<metadata>
Created by potrace 1.16, written by Peter Selinger 2001-2019
</metadata>
<g transform="translate(0.000000,50.000000) scale(0.012626,-0.014124)"
fill="#000000" stroke="none">
<path d="M1790 3510 c-328 -41 -554 -115 -813 -267 -79 -46 -86 -58 -52 -77
11 -6 25 -17 33 -24 11 -10 20 -9 45 7 61 37 138 81 142 81 2 0 36 15 77 34
160 73 318 117 526 146 125 18 450 8 582 -19 216 -43 428 -127 616 -242 68
-41 83 -41 84 2 0 8 5 20 11 26 14 14 -59 62 -203 134 -184 92 -362 149 -573
184 -115 19 -379 27 -475 15z"/>
<path d="M2520 2857 c-122 -60 -114 -233 14 -282 61 -24 108 -14 158 34 35 32
41 45 45 88 6 61 -15 113 -60 145 -36 26 -120 34 -157 15z"/>
<path d="M1510 2623 c-62 -23 -83 -111 -36 -158 32 -32 69 -40 107 -25 114 47
45 225 -71 183z"/>
<path d="M1755 2578 c-29 -16 -35 -28 -35 -69 0 -71 83 -108 135 -59 70 66
-16 176 -100 128z"/>
<path d="M1177 2560 c-14 -11 -31 -36 -37 -56 -23 -70 34 -144 110 -144 66 0
110 47 110 116 0 28 -8 44 -34 70 -29 29 -41 34 -79 34 -29 0 -53 -7 -70 -20z"/>
<path d="M1973 2510 c-47 -19 -56 -73 -18 -114 28 -31 64 -33 96 -8 59 49 -6
151 -78 122z"/>
<path d="M2593 2433 c-30 -6 -70 -48 -83 -88 -27 -82 43 -175 132 -175 36 0
82 29 107 67 63 98 -35 222 -156 196z"/>
<path d="M2908 2375 c-70 -39 -82 -150 -23 -210 49 -48 146 -45 189 6 48 56
46 129 -4 182 -23 25 -37 31 -82 34 -35 2 -62 -2 -80 -12z"/>
<path d="M1560 2323 c-83 -32 -87 -141 -6 -180 38 -18 72 -13 107 16 35 28 34
101 -1 136 -26 25 -73 39 -100 28z"/>
<path d="M1228 2275 c-89 -60 -37 -205 74 -205 12 0 37 9 54 19 77 47 66 160
-19 199 -41 18 -68 15 -109 -13z"/>
<path d="M1792 2272 c-48 -42 -35 -113 24 -138 42 -18 66 -12 94 23 28 36 25
69 -9 104 -34 34 -77 38 -109 11z"/>
<path d="M2006 2196 c-31 -30 -33 -62 -7 -95 38 -50 121 -20 121 44 0 36 -22
60 -62 70 -21 5 -33 1 -52 -19z"/>
<path d="M914 2156 c-45 -20 -74 -66 -74 -118 0 -61 28 -102 85 -124 43 -16
51 -16 88 -3 101 35 118 167 30 233 -32 24 -90 30 -129 12z"/>
<path d="M2528 2058 c-57 -33 -73 -89 -43 -148 21 -41 53 -60 103 -60 77 0
128 74 101 147 -27 69 -99 97 -161 61z"/>
<path d="M2893 2006 c-68 -31 -81 -126 -24 -180 57 -55 142 -41 176 30 45 96
-54 194 -152 150z"/>
<path d="M1693 1978 c-101 -27 -74 -188 32 -188 84 0 128 106 68 162 -34 31
-58 37 -100 26z"/>
<path d="M1373 1944 c-29 -15 -63 -65 -63 -95 0 -87 110 -149 178 -100 16 11
35 34 42 51 39 93 -66 190 -157 144z"/>
<path d="M1928 1943 c-47 -29 -51 -82 -9 -124 40 -40 81 -39 115 2 41 48 31
95 -24 124 -36 19 -48 19 -82 -2z"/>
<path d="M3164 1904 c-80 -39 -85 -144 -8 -195 72 -47 174 7 174 93 0 36 -37
88 -75 104 -43 17 -52 17 -91 -2z"/>
<path d="M2135 1875 c-30 -30 -31 -54 -4 -89 41 -53 123 -23 121 44 -1 35 -35
69 -70 70 -13 0 -34 -11 -47 -25z"/>
<path d="M1033 1830 c-110 -67 -64 -240 64 -240 83 0 136 49 136 126 0 103
-113 167 -200 114z"/>
<path d="M36 1743 c-9 -55 -7 -242 4 -361 40 -445 250 -878 581 -1197 141
-136 180 -165 203 -151 27 15 61 45 55 49 -90 63 -221 184 -306 282 -262 303
-414 674 -443 1082 -5 69 -6 173 -3 230 l6 103 -45 0 c-45 0 -45 -1 -52 -37z"/>
<path d="M2411 1754 c-25 -21 -31 -33 -31 -65 0 -79 66 -126 133 -94 65 31 75
99 23 151 -42 42 -82 45 -125 8z"/>
<path d="M3820 1593 c-1 -178 -5 -223 -36 -379 -31 -161 -72 -283 -145 -434
-97 -201 -200 -348 -350 -499 -50 -51 -90 -94 -88 -96 2 -1 24 -10 49 -18 l45
-16 70 73 c103 106 137 149 219 271 85 126 136 218 178 319 44 106 95 275 117
384 26 125 44 365 35 465 l-7 77 -43 0 -44 0 0 -147z"/>
<path d="M2767 1695 c-60 -56 -16 -165 66 -165 50 0 97 41 97 83 0 51 -10 72
-40 90 -42 25 -90 22 -123 -8z"/>
<path d="M1712 1629 c-47 -17 -55 -78 -16 -114 33 -30 63 -32 92 -5 57 53 -3
146 -76 119z"/>
<path d="M704 1610 c-11 -4 -35 -25 -53 -46 -32 -35 -33 -40 -29 -102 4 -60 7
-67 44 -102 56 -52 108 -60 172 -28 147 73 94 290 -70 287 -24 0 -52 -4 -64
-9z"/>
<path d="M3046 1579 c-56 -66 -9 -159 80 -159 61 0 104 63 84 124 -14 43 -48
66 -99 66 -32 0 -44 -6 -65 -31z"/>
<path d="M2313 1552 c-28 -4 -63 -47 -63 -78 0 -12 12 -36 26 -53 63 -75 175
-2 132 85 -14 30 -60 52 -95 46z"/>
<path d="M2633 1478 c-30 -35 -35 -57 -17 -93 27 -57 103 -66 140 -17 56 73
-62 178 -123 110z"/>
<path d="M1753 1425 c-12 -8 -24 -28 -28 -44 -18 -81 82 -135 140 -76 30 29
31 59 5 103 -17 27 -26 32 -58 32 -20 0 -47 -7 -59 -15z"/>
<path d="M2915 1364 c-31 -34 -32 -75 -2 -108 53 -61 141 -30 141 49 0 75 -89
113 -139 59z"/>
<path d="M2136 1358 c-23 -32 -20 -65 9 -93 63 -64 151 19 99 93 -21 31 -87
31 -108 0z"/>
<path d="M1482 1337 c-29 -30 -28 -62 3 -92 31 -32 69 -32 101 0 27 27 25 64
-4 98 -22 25 -74 22 -100 -6z"/>
<path d="M2481 1314 c-27 -35 -26 -59 4 -89 47 -48 115 -23 115 42 0 68 -78
99 -119 47z"/>
<path d="M1852 1207 c-62 -66 -17 -167 74 -167 56 0 101 56 89 110 -16 74
-115 108 -163 57z"/>
<path d="M2761 1209 c-18 -17 -22 -28 -17 -53 12 -64 77 -86 122 -40 65 64
-38 156 -105 93z"/>
<path d="M1247 1152 c-23 -25 -21 -78 3 -102 42 -42 120 -10 120 49 0 58 -85
95 -123 53z"/>
<path d="M1560 1162 c-90 -28 -70 -162 25 -162 47 0 89 49 79 94 -9 43 -66 80
-104 68z"/>
<path d="M2059 1002 c-19 -9 -43 -33 -53 -53 -65 -121 128 -227 197 -109 56
94 -47 211 -144 162z"/>
<path d="M1281 944 c-25 -31 -26 -55 -6 -93 16 -31 33 -41 74 -41 57 0 91 52
71 106 -15 38 -38 53 -82 54 -28 0 -41 -6 -57 -26z"/>
<path d="M1638 932 c-31 -18 -53 -71 -43 -101 21 -66 89 -97 144 -65 60 36 65
112 9 159 -34 29 -72 32 -110 7z"/>
<path d="M2342 813 c-13 -2 -38 -20 -57 -39 -31 -31 -35 -41 -35 -88 0 -62 24
-100 76 -122 46 -19 83 -17 122 6 59 36 78 118 42 177 -31 52 -89 77 -148 66z"/>
<path d="M1413 750 c-50 -20 -71 -96 -39 -145 34 -52 117 -57 156 -8 38 48 20
121 -35 148 -37 17 -50 18 -82 5z"/>
<path d="M1814 711 c-61 -37 -67 -130 -12 -176 56 -47 111 -45 160 7 88 94
-37 237 -148 169z"/>
<path d="M2677 651 c-131 -86 -69 -283 90 -283 57 0 106 33 134 89 33 67 5
151 -63 193 -43 26 -123 27 -161 1z"/>
<path d="M1602 533 c-79 -39 -82 -143 -6 -194 79 -52 182 11 170 104 -5 45
-28 74 -73 93 -41 18 -50 17 -91 -3z"/>
<path d="M2099 523 c-38 -23 -59 -64 -59 -113 0 -75 59 -130 141 -130 36 0 48
6 81 40 31 34 38 48 38 81 0 81 -55 139 -132 139 -23 0 -55 -8 -69 -17z"/>
</g>
</svg>
